M48
; DRILL file {KiCad 5.1.9} date Tue Apr  6 14:52:28 2021
; FORMAT={-:-/ absolute / metric / decimal}
; #@! TF.CreationDate,2021-04-06T14:52:28+03:00
; #@! TF.GenerationSoftware,Kicad,Pcbnew,5.1.9
; #@! TF.FileFunction,Plated,1,2,PTH
FMAT,2
METRIC
T1C0.300
T2C1.600
%
G90
G05
T1
X72.25Y-30.75
X73.0Y-22.75
X74.25Y-30.75
X75.0Y-22.75
X76.25Y-30.75
X77.0Y-22.75
X77.5Y-29.75
X78.75Y-30.75
X79.0Y-22.75
X80.75Y-30.75
X81.0Y-22.75
X82.75Y-22.75
X82.75Y-30.75
T2
X64.25Y-24.5
X64.25Y-29.5
X66.75Y-27.0
X69.25Y-24.5
X69.25Y-29.5
X85.5Y-24.5
X85.5Y-29.5
X88.0Y-27.0
X90.5Y-24.5
X90.5Y-29.5
T0
M30
