%TF.GenerationSoftware,KiCad,Pcbnew,5.1.9*%
%TF.CreationDate,2021-04-06T14:52:37+03:00*%
%TF.ProjectId,ufilter-pcb,7566696c-7465-4722-9d70-63622e6b6963,r0*%
%TF.SameCoordinates,Original*%
%TF.FileFunction,Legend,Top*%
%TF.FilePolarity,Positive*%
%FSLAX46Y46*%
G04 Gerber Fmt 4.6, Leading zero omitted, Abs format (unit mm)*
G04 Created by KiCad (PCBNEW 5.1.9) date 2021-04-06 14:52:37*
%MOMM*%
%LPD*%
G01*
G04 APERTURE LIST*
%ADD10C,0.120000*%
%ADD11C,0.150000*%
G04 APERTURE END LIST*
D10*
%TO.C,C1*%
X76510000Y-27716233D02*
X76510000Y-28008767D01*
X75490000Y-27716233D02*
X75490000Y-28008767D01*
%TO.C,C2*%
X74508767Y-23990000D02*
X74216233Y-23990000D01*
X74508767Y-25010000D02*
X74216233Y-25010000D01*
%TO.C,C3*%
X78490000Y-27716233D02*
X78490000Y-28008767D01*
X79510000Y-27716233D02*
X79510000Y-28008767D01*
%TO.C,L1*%
X72790000Y-28286252D02*
X72790000Y-27763748D01*
X74210000Y-28286252D02*
X74210000Y-27763748D01*
%TO.C,L2*%
X80736252Y-23790000D02*
X80213748Y-23790000D01*
X80736252Y-25210000D02*
X80213748Y-25210000D01*
%TO.C,L3*%
X82210000Y-28286252D02*
X82210000Y-27763748D01*
X80790000Y-28286252D02*
X80790000Y-27763748D01*
%TO.C,J1*%
X71000000Y-32250000D02*
X60250000Y-32250000D01*
X71000000Y-21750000D02*
X71000000Y-32250000D01*
X60250000Y-21750000D02*
X71000000Y-21750000D01*
X60250000Y-32250000D02*
X60250000Y-21750000D01*
%TO.C,J2*%
X94500000Y-21750000D02*
X94500000Y-32250000D01*
X94500000Y-32250000D02*
X83750000Y-32250000D01*
X83750000Y-32250000D02*
X83750000Y-21750000D01*
X83750000Y-21750000D02*
X94500000Y-21750000D01*
%TO.C,C1*%
D11*
X75833333Y-32107142D02*
X75785714Y-32154761D01*
X75642857Y-32202380D01*
X75547619Y-32202380D01*
X75404761Y-32154761D01*
X75309523Y-32059523D01*
X75261904Y-31964285D01*
X75214285Y-31773809D01*
X75214285Y-31630952D01*
X75261904Y-31440476D01*
X75309523Y-31345238D01*
X75404761Y-31250000D01*
X75547619Y-31202380D01*
X75642857Y-31202380D01*
X75785714Y-31250000D01*
X75833333Y-31297619D01*
X76785714Y-32202380D02*
X76214285Y-32202380D01*
X76500000Y-32202380D02*
X76500000Y-31202380D01*
X76404761Y-31345238D01*
X76309523Y-31440476D01*
X76214285Y-31488095D01*
%TO.C,C2*%
X74195833Y-22107142D02*
X74148214Y-22154761D01*
X74005357Y-22202380D01*
X73910119Y-22202380D01*
X73767261Y-22154761D01*
X73672023Y-22059523D01*
X73624404Y-21964285D01*
X73576785Y-21773809D01*
X73576785Y-21630952D01*
X73624404Y-21440476D01*
X73672023Y-21345238D01*
X73767261Y-21250000D01*
X73910119Y-21202380D01*
X74005357Y-21202380D01*
X74148214Y-21250000D01*
X74195833Y-21297619D01*
X74576785Y-21297619D02*
X74624404Y-21250000D01*
X74719642Y-21202380D01*
X74957738Y-21202380D01*
X75052976Y-21250000D01*
X75100595Y-21297619D01*
X75148214Y-21392857D01*
X75148214Y-21488095D01*
X75100595Y-21630952D01*
X74529166Y-22202380D01*
X75148214Y-22202380D01*
%TO.C,C3*%
X78833333Y-32107142D02*
X78785714Y-32154761D01*
X78642857Y-32202380D01*
X78547619Y-32202380D01*
X78404761Y-32154761D01*
X78309523Y-32059523D01*
X78261904Y-31964285D01*
X78214285Y-31773809D01*
X78214285Y-31630952D01*
X78261904Y-31440476D01*
X78309523Y-31345238D01*
X78404761Y-31250000D01*
X78547619Y-31202380D01*
X78642857Y-31202380D01*
X78785714Y-31250000D01*
X78833333Y-31297619D01*
X79166666Y-31202380D02*
X79785714Y-31202380D01*
X79452380Y-31583333D01*
X79595238Y-31583333D01*
X79690476Y-31630952D01*
X79738095Y-31678571D01*
X79785714Y-31773809D01*
X79785714Y-32011904D01*
X79738095Y-32107142D01*
X79690476Y-32154761D01*
X79595238Y-32202380D01*
X79309523Y-32202380D01*
X79214285Y-32154761D01*
X79166666Y-32107142D01*
%TO.C,L1*%
X73333333Y-32202380D02*
X72857142Y-32202380D01*
X72857142Y-31202380D01*
X74190476Y-32202380D02*
X73619047Y-32202380D01*
X73904761Y-32202380D02*
X73904761Y-31202380D01*
X73809523Y-31345238D01*
X73714285Y-31440476D01*
X73619047Y-31488095D01*
%TO.C,L2*%
X80333333Y-22202380D02*
X79857142Y-22202380D01*
X79857142Y-21202380D01*
X80619047Y-21297619D02*
X80666666Y-21250000D01*
X80761904Y-21202380D01*
X81000000Y-21202380D01*
X81095238Y-21250000D01*
X81142857Y-21297619D01*
X81190476Y-21392857D01*
X81190476Y-21488095D01*
X81142857Y-21630952D01*
X80571428Y-22202380D01*
X81190476Y-22202380D01*
%TO.C,L3*%
X81333333Y-32202380D02*
X80857142Y-32202380D01*
X80857142Y-31202380D01*
X81571428Y-31202380D02*
X82190476Y-31202380D01*
X81857142Y-31583333D01*
X82000000Y-31583333D01*
X82095238Y-31630952D01*
X82142857Y-31678571D01*
X82190476Y-31773809D01*
X82190476Y-32011904D01*
X82142857Y-32107142D01*
X82095238Y-32154761D01*
X82000000Y-32202380D01*
X81714285Y-32202380D01*
X81619047Y-32154761D01*
X81571428Y-32107142D01*
%TO.C,J1*%
X71452380Y-26833333D02*
X72166666Y-26833333D01*
X72309523Y-26880952D01*
X72404761Y-26976190D01*
X72452380Y-27119047D01*
X72452380Y-27214285D01*
X72452380Y-25833333D02*
X72452380Y-26404761D01*
X72452380Y-26119047D02*
X71452380Y-26119047D01*
X71595238Y-26214285D01*
X71690476Y-26309523D01*
X71738095Y-26404761D01*
%TO.C,J2*%
X82202380Y-27833333D02*
X82916666Y-27833333D01*
X83059523Y-27880952D01*
X83154761Y-27976190D01*
X83202380Y-28119047D01*
X83202380Y-28214285D01*
X82297619Y-27404761D02*
X82250000Y-27357142D01*
X82202380Y-27261904D01*
X82202380Y-27023809D01*
X82250000Y-26928571D01*
X82297619Y-26880952D01*
X82392857Y-26833333D01*
X82488095Y-26833333D01*
X82630952Y-26880952D01*
X83202380Y-27452380D01*
X83202380Y-26833333D01*
%TD*%
M02*
