%TF.GenerationSoftware,KiCad,Pcbnew,5.1.9*%
%TF.CreationDate,2021-04-06T14:52:37+03:00*%
%TF.ProjectId,ufilter-pcb,7566696c-7465-4722-9d70-63622e6b6963,r0*%
%TF.SameCoordinates,Original*%
%TF.FileFunction,Copper,L1,Top*%
%TF.FilePolarity,Positive*%
%FSLAX46Y46*%
G04 Gerber Fmt 4.6, Leading zero omitted, Abs format (unit mm)*
G04 Created by KiCad (PCBNEW 5.1.9) date 2021-04-06 14:52:37*
%MOMM*%
%LPD*%
G01*
G04 APERTURE LIST*
%TA.AperFunction,ComponentPad*%
%ADD10C,3.000000*%
%TD*%
%TA.AperFunction,ViaPad*%
%ADD11C,0.600000*%
%TD*%
%TA.AperFunction,Conductor*%
%ADD12C,1.270000*%
%TD*%
%TA.AperFunction,Conductor*%
%ADD13C,0.254000*%
%TD*%
%TA.AperFunction,Conductor*%
%ADD14C,0.100000*%
%TD*%
G04 APERTURE END LIST*
%TO.P,C1,1*%
%TO.N,Net-(C1-Pad1)*%
%TA.AperFunction,SMDPad,CuDef*%
G36*
G01*
X75762500Y-26462500D02*
X76237500Y-26462500D01*
G75*
G02*
X76475000Y-26700000I0J-237500D01*
G01*
X76475000Y-27300000D01*
G75*
G02*
X76237500Y-27537500I-237500J0D01*
G01*
X75762500Y-27537500D01*
G75*
G02*
X75525000Y-27300000I0J237500D01*
G01*
X75525000Y-26700000D01*
G75*
G02*
X75762500Y-26462500I237500J0D01*
G01*
G37*
%TD.AperFunction*%
%TO.P,C1,2*%
%TO.N,GND*%
%TA.AperFunction,SMDPad,CuDef*%
G36*
G01*
X75762500Y-28187500D02*
X76237500Y-28187500D01*
G75*
G02*
X76475000Y-28425000I0J-237500D01*
G01*
X76475000Y-29025000D01*
G75*
G02*
X76237500Y-29262500I-237500J0D01*
G01*
X75762500Y-29262500D01*
G75*
G02*
X75525000Y-29025000I0J237500D01*
G01*
X75525000Y-28425000D01*
G75*
G02*
X75762500Y-28187500I237500J0D01*
G01*
G37*
%TD.AperFunction*%
%TD*%
%TO.P,C2,2*%
%TO.N,Net-(C1-Pad1)*%
%TA.AperFunction,SMDPad,CuDef*%
G36*
G01*
X74037500Y-24262500D02*
X74037500Y-24737500D01*
G75*
G02*
X73800000Y-24975000I-237500J0D01*
G01*
X73200000Y-24975000D01*
G75*
G02*
X72962500Y-24737500I0J237500D01*
G01*
X72962500Y-24262500D01*
G75*
G02*
X73200000Y-24025000I237500J0D01*
G01*
X73800000Y-24025000D01*
G75*
G02*
X74037500Y-24262500I0J-237500D01*
G01*
G37*
%TD.AperFunction*%
%TO.P,C2,1*%
%TO.N,Net-(C2-Pad1)*%
%TA.AperFunction,SMDPad,CuDef*%
G36*
G01*
X75762500Y-24262500D02*
X75762500Y-24737500D01*
G75*
G02*
X75525000Y-24975000I-237500J0D01*
G01*
X74925000Y-24975000D01*
G75*
G02*
X74687500Y-24737500I0J237500D01*
G01*
X74687500Y-24262500D01*
G75*
G02*
X74925000Y-24025000I237500J0D01*
G01*
X75525000Y-24025000D01*
G75*
G02*
X75762500Y-24262500I0J-237500D01*
G01*
G37*
%TD.AperFunction*%
%TD*%
%TO.P,C3,2*%
%TO.N,GND*%
%TA.AperFunction,SMDPad,CuDef*%
G36*
G01*
X78762500Y-28187500D02*
X79237500Y-28187500D01*
G75*
G02*
X79475000Y-28425000I0J-237500D01*
G01*
X79475000Y-29025000D01*
G75*
G02*
X79237500Y-29262500I-237500J0D01*
G01*
X78762500Y-29262500D01*
G75*
G02*
X78525000Y-29025000I0J237500D01*
G01*
X78525000Y-28425000D01*
G75*
G02*
X78762500Y-28187500I237500J0D01*
G01*
G37*
%TD.AperFunction*%
%TO.P,C3,1*%
%TO.N,Net-(C3-Pad1)*%
%TA.AperFunction,SMDPad,CuDef*%
G36*
G01*
X78762500Y-26462500D02*
X79237500Y-26462500D01*
G75*
G02*
X79475000Y-26700000I0J-237500D01*
G01*
X79475000Y-27300000D01*
G75*
G02*
X79237500Y-27537500I-237500J0D01*
G01*
X78762500Y-27537500D01*
G75*
G02*
X78525000Y-27300000I0J237500D01*
G01*
X78525000Y-26700000D01*
G75*
G02*
X78762500Y-26462500I237500J0D01*
G01*
G37*
%TD.AperFunction*%
%TD*%
%TO.P,L1,1*%
%TO.N,GND*%
%TA.AperFunction,SMDPad,CuDef*%
G36*
G01*
X73950001Y-29625000D02*
X73049999Y-29625000D01*
G75*
G02*
X72800000Y-29375001I0J249999D01*
G01*
X72800000Y-28724999D01*
G75*
G02*
X73049999Y-28475000I249999J0D01*
G01*
X73950001Y-28475000D01*
G75*
G02*
X74200000Y-28724999I0J-249999D01*
G01*
X74200000Y-29375001D01*
G75*
G02*
X73950001Y-29625000I-249999J0D01*
G01*
G37*
%TD.AperFunction*%
%TO.P,L1,2*%
%TO.N,Net-(C1-Pad1)*%
%TA.AperFunction,SMDPad,CuDef*%
G36*
G01*
X73950001Y-27575000D02*
X73049999Y-27575000D01*
G75*
G02*
X72800000Y-27325001I0J249999D01*
G01*
X72800000Y-26674999D01*
G75*
G02*
X73049999Y-26425000I249999J0D01*
G01*
X73950001Y-26425000D01*
G75*
G02*
X74200000Y-26674999I0J-249999D01*
G01*
X74200000Y-27325001D01*
G75*
G02*
X73950001Y-27575000I-249999J0D01*
G01*
G37*
%TD.AperFunction*%
%TD*%
%TO.P,L2,2*%
%TO.N,Net-(C2-Pad1)*%
%TA.AperFunction,SMDPad,CuDef*%
G36*
G01*
X80025000Y-24049999D02*
X80025000Y-24950001D01*
G75*
G02*
X79775001Y-25200000I-249999J0D01*
G01*
X79124999Y-25200000D01*
G75*
G02*
X78875000Y-24950001I0J249999D01*
G01*
X78875000Y-24049999D01*
G75*
G02*
X79124999Y-23800000I249999J0D01*
G01*
X79775001Y-23800000D01*
G75*
G02*
X80025000Y-24049999I0J-249999D01*
G01*
G37*
%TD.AperFunction*%
%TO.P,L2,1*%
%TO.N,Net-(C3-Pad1)*%
%TA.AperFunction,SMDPad,CuDef*%
G36*
G01*
X82075000Y-24049999D02*
X82075000Y-24950001D01*
G75*
G02*
X81825001Y-25200000I-249999J0D01*
G01*
X81174999Y-25200000D01*
G75*
G02*
X80925000Y-24950001I0J249999D01*
G01*
X80925000Y-24049999D01*
G75*
G02*
X81174999Y-23800000I249999J0D01*
G01*
X81825001Y-23800000D01*
G75*
G02*
X82075000Y-24049999I0J-249999D01*
G01*
G37*
%TD.AperFunction*%
%TD*%
%TO.P,L3,2*%
%TO.N,Net-(C3-Pad1)*%
%TA.AperFunction,SMDPad,CuDef*%
G36*
G01*
X81950001Y-27575000D02*
X81049999Y-27575000D01*
G75*
G02*
X80800000Y-27325001I0J249999D01*
G01*
X80800000Y-26674999D01*
G75*
G02*
X81049999Y-26425000I249999J0D01*
G01*
X81950001Y-26425000D01*
G75*
G02*
X82200000Y-26674999I0J-249999D01*
G01*
X82200000Y-27325001D01*
G75*
G02*
X81950001Y-27575000I-249999J0D01*
G01*
G37*
%TD.AperFunction*%
%TO.P,L3,1*%
%TO.N,GND*%
%TA.AperFunction,SMDPad,CuDef*%
G36*
G01*
X81950001Y-29625000D02*
X81049999Y-29625000D01*
G75*
G02*
X80800000Y-29375001I0J249999D01*
G01*
X80800000Y-28724999D01*
G75*
G02*
X81049999Y-28475000I249999J0D01*
G01*
X81950001Y-28475000D01*
G75*
G02*
X82200000Y-28724999I0J-249999D01*
G01*
X82200000Y-29375001D01*
G75*
G02*
X81950001Y-29625000I-249999J0D01*
G01*
G37*
%TD.AperFunction*%
%TD*%
%TO.P,J1,1*%
%TO.N,Net-(C1-Pad1)*%
%TA.AperFunction,SMDPad,CuDef*%
G36*
G01*
X65675000Y-27750000D02*
X60825000Y-27750000D01*
G75*
G02*
X60450000Y-27375000I0J375000D01*
G01*
X60450000Y-26625000D01*
G75*
G02*
X60825000Y-26250000I375000J0D01*
G01*
X65675000Y-26250000D01*
G75*
G02*
X66050000Y-26625000I0J-375000D01*
G01*
X66050000Y-27375000D01*
G75*
G02*
X65675000Y-27750000I-375000J0D01*
G01*
G37*
%TD.AperFunction*%
%TO.P,J1,2*%
%TO.N,GND*%
%TA.AperFunction,SMDPad,CuDef*%
G36*
G01*
X64950000Y-23550000D02*
X60850000Y-23550000D01*
G75*
G02*
X60450000Y-23150000I0J400000D01*
G01*
X60450000Y-22350000D01*
G75*
G02*
X60850000Y-21950000I400000J0D01*
G01*
X64950000Y-21950000D01*
G75*
G02*
X65350000Y-22350000I0J-400000D01*
G01*
X65350000Y-23150000D01*
G75*
G02*
X64950000Y-23550000I-400000J0D01*
G01*
G37*
%TD.AperFunction*%
%TA.AperFunction,SMDPad,CuDef*%
G36*
G01*
X64950000Y-32050000D02*
X60850000Y-32050000D01*
G75*
G02*
X60450000Y-31650000I0J400000D01*
G01*
X60450000Y-30850000D01*
G75*
G02*
X60850000Y-30450000I400000J0D01*
G01*
X64950000Y-30450000D01*
G75*
G02*
X65350000Y-30850000I0J-400000D01*
G01*
X65350000Y-31650000D01*
G75*
G02*
X64950000Y-32050000I-400000J0D01*
G01*
G37*
%TD.AperFunction*%
D10*
X69250000Y-24500000D03*
X69250000Y-29500000D03*
X64250000Y-24500000D03*
X64250000Y-29500000D03*
%TO.P,J1,1*%
%TO.N,Net-(C1-Pad1)*%
X66750000Y-27000000D03*
%TD*%
%TO.P,J2,1*%
%TO.N,Net-(C3-Pad1)*%
X88000000Y-27000000D03*
%TO.P,J2,2*%
%TO.N,GND*%
X90500000Y-24500000D03*
X90500000Y-29500000D03*
X85500000Y-24500000D03*
X85500000Y-29500000D03*
%TA.AperFunction,SMDPad,CuDef*%
G36*
G01*
X89800000Y-21950000D02*
X93900000Y-21950000D01*
G75*
G02*
X94300000Y-22350000I0J-400000D01*
G01*
X94300000Y-23150000D01*
G75*
G02*
X93900000Y-23550000I-400000J0D01*
G01*
X89800000Y-23550000D01*
G75*
G02*
X89400000Y-23150000I0J400000D01*
G01*
X89400000Y-22350000D01*
G75*
G02*
X89800000Y-21950000I400000J0D01*
G01*
G37*
%TD.AperFunction*%
%TA.AperFunction,SMDPad,CuDef*%
G36*
G01*
X89800000Y-30450000D02*
X93900000Y-30450000D01*
G75*
G02*
X94300000Y-30850000I0J-400000D01*
G01*
X94300000Y-31650000D01*
G75*
G02*
X93900000Y-32050000I-400000J0D01*
G01*
X89800000Y-32050000D01*
G75*
G02*
X89400000Y-31650000I0J400000D01*
G01*
X89400000Y-30850000D01*
G75*
G02*
X89800000Y-30450000I400000J0D01*
G01*
G37*
%TD.AperFunction*%
%TO.P,J2,1*%
%TO.N,Net-(C3-Pad1)*%
%TA.AperFunction,SMDPad,CuDef*%
G36*
G01*
X89075000Y-26250000D02*
X93925000Y-26250000D01*
G75*
G02*
X94300000Y-26625000I0J-375000D01*
G01*
X94300000Y-27375000D01*
G75*
G02*
X93925000Y-27750000I-375000J0D01*
G01*
X89075000Y-27750000D01*
G75*
G02*
X88700000Y-27375000I0J375000D01*
G01*
X88700000Y-26625000D01*
G75*
G02*
X89075000Y-26250000I375000J0D01*
G01*
G37*
%TD.AperFunction*%
%TD*%
D11*
%TO.N,GND*%
X75000000Y-22750000D03*
X77000000Y-22750000D03*
X79000000Y-22750000D03*
X81000000Y-22750000D03*
X82750000Y-22750000D03*
X73000000Y-22750000D03*
X72250000Y-30750000D03*
X74250000Y-30750000D03*
X76250000Y-30750000D03*
X80750000Y-30750000D03*
X82750000Y-30750000D03*
X77500000Y-29750000D03*
X78750000Y-30750000D03*
%TD*%
D12*
%TO.N,Net-(C1-Pad1)*%
X73500000Y-27000000D02*
X76000000Y-27000000D01*
X73500000Y-27000000D02*
X73500000Y-24500000D01*
X66750000Y-27000000D02*
X73500000Y-27000000D01*
X63250000Y-27000000D02*
X66750000Y-27000000D01*
%TO.N,Net-(C2-Pad1)*%
X75225000Y-24500000D02*
X79450000Y-24500000D01*
%TO.N,Net-(C3-Pad1)*%
X79000000Y-27000000D02*
X81500000Y-27000000D01*
X81500000Y-24500000D02*
X81500000Y-27000000D01*
X81500000Y-27000000D02*
X88000000Y-27000000D01*
X88000000Y-27000000D02*
X91500000Y-27000000D01*
%TD*%
D13*
%TO.N,GND*%
X94573001Y-33573000D02*
X60427000Y-33573000D01*
X60427000Y-30991653D01*
X62937952Y-30991653D01*
X63093962Y-31307214D01*
X63468745Y-31498020D01*
X63873551Y-31612044D01*
X64292824Y-31644902D01*
X64710451Y-31595334D01*
X65110383Y-31465243D01*
X65406038Y-31307214D01*
X65562048Y-30991653D01*
X67937952Y-30991653D01*
X68093962Y-31307214D01*
X68468745Y-31498020D01*
X68873551Y-31612044D01*
X69292824Y-31644902D01*
X69710451Y-31595334D01*
X70110383Y-31465243D01*
X70406038Y-31307214D01*
X70562048Y-30991653D01*
X84187952Y-30991653D01*
X84343962Y-31307214D01*
X84718745Y-31498020D01*
X85123551Y-31612044D01*
X85542824Y-31644902D01*
X85960451Y-31595334D01*
X86360383Y-31465243D01*
X86656038Y-31307214D01*
X86812048Y-30991653D01*
X89187952Y-30991653D01*
X89343962Y-31307214D01*
X89718745Y-31498020D01*
X90123551Y-31612044D01*
X90542824Y-31644902D01*
X90960451Y-31595334D01*
X91360383Y-31465243D01*
X91656038Y-31307214D01*
X91812048Y-30991653D01*
X90500000Y-29679605D01*
X89187952Y-30991653D01*
X86812048Y-30991653D01*
X85500000Y-29679605D01*
X84187952Y-30991653D01*
X70562048Y-30991653D01*
X69250000Y-29679605D01*
X67937952Y-30991653D01*
X65562048Y-30991653D01*
X64250000Y-29679605D01*
X62937952Y-30991653D01*
X60427000Y-30991653D01*
X60427000Y-28012901D01*
X60536524Y-28071443D01*
X60677936Y-28114339D01*
X60825000Y-28128824D01*
X62699216Y-28128824D01*
X62758345Y-28187953D01*
X62442786Y-28343962D01*
X62251980Y-28718745D01*
X62137956Y-29123551D01*
X62105098Y-29542824D01*
X62154666Y-29960451D01*
X62284757Y-30360383D01*
X62442786Y-30656038D01*
X62758347Y-30812048D01*
X64070395Y-29500000D01*
X64056253Y-29485858D01*
X64235858Y-29306253D01*
X64250000Y-29320395D01*
X64264143Y-29306253D01*
X64443748Y-29485858D01*
X64429605Y-29500000D01*
X65741653Y-30812048D01*
X66057214Y-30656038D01*
X66248020Y-30281255D01*
X66362044Y-29876449D01*
X66394902Y-29457176D01*
X66345334Y-29039549D01*
X66273597Y-28819010D01*
X66565132Y-28877000D01*
X66934868Y-28877000D01*
X67223580Y-28819572D01*
X67137956Y-29123551D01*
X67105098Y-29542824D01*
X67154666Y-29960451D01*
X67284757Y-30360383D01*
X67442786Y-30656038D01*
X67758347Y-30812048D01*
X69070395Y-29500000D01*
X69056253Y-29485858D01*
X69235858Y-29306253D01*
X69250000Y-29320395D01*
X69264143Y-29306253D01*
X69443748Y-29485858D01*
X69429605Y-29500000D01*
X70741653Y-30812048D01*
X71057214Y-30656038D01*
X71248020Y-30281255D01*
X71362044Y-29876449D01*
X71381749Y-29625000D01*
X72161928Y-29625000D01*
X72174188Y-29749482D01*
X72210498Y-29869180D01*
X72269463Y-29979494D01*
X72348815Y-30076185D01*
X72445506Y-30155537D01*
X72555820Y-30214502D01*
X72675518Y-30250812D01*
X72800000Y-30263072D01*
X73214250Y-30260000D01*
X73373000Y-30101250D01*
X73373000Y-29177000D01*
X73627000Y-29177000D01*
X73627000Y-30101250D01*
X73785750Y-30260000D01*
X74200000Y-30263072D01*
X74324482Y-30250812D01*
X74444180Y-30214502D01*
X74554494Y-30155537D01*
X74651185Y-30076185D01*
X74730537Y-29979494D01*
X74789502Y-29869180D01*
X74825812Y-29749482D01*
X74838072Y-29625000D01*
X74835000Y-29335750D01*
X74761750Y-29262500D01*
X74886928Y-29262500D01*
X74899188Y-29386982D01*
X74935498Y-29506680D01*
X74994463Y-29616994D01*
X75073815Y-29713685D01*
X75170506Y-29793037D01*
X75280820Y-29852002D01*
X75400518Y-29888312D01*
X75525000Y-29900572D01*
X75714250Y-29897500D01*
X75873000Y-29738750D01*
X75873000Y-28852000D01*
X76127000Y-28852000D01*
X76127000Y-29738750D01*
X76285750Y-29897500D01*
X76475000Y-29900572D01*
X76599482Y-29888312D01*
X76719180Y-29852002D01*
X76829494Y-29793037D01*
X76926185Y-29713685D01*
X77005537Y-29616994D01*
X77064502Y-29506680D01*
X77100812Y-29386982D01*
X77113072Y-29262500D01*
X77886928Y-29262500D01*
X77899188Y-29386982D01*
X77935498Y-29506680D01*
X77994463Y-29616994D01*
X78073815Y-29713685D01*
X78170506Y-29793037D01*
X78280820Y-29852002D01*
X78400518Y-29888312D01*
X78525000Y-29900572D01*
X78714250Y-29897500D01*
X78873000Y-29738750D01*
X78873000Y-28852000D01*
X79127000Y-28852000D01*
X79127000Y-29738750D01*
X79285750Y-29897500D01*
X79475000Y-29900572D01*
X79599482Y-29888312D01*
X79719180Y-29852002D01*
X79829494Y-29793037D01*
X79926185Y-29713685D01*
X79998966Y-29625000D01*
X80161928Y-29625000D01*
X80174188Y-29749482D01*
X80210498Y-29869180D01*
X80269463Y-29979494D01*
X80348815Y-30076185D01*
X80445506Y-30155537D01*
X80555820Y-30214502D01*
X80675518Y-30250812D01*
X80800000Y-30263072D01*
X81214250Y-30260000D01*
X81373000Y-30101250D01*
X81373000Y-29177000D01*
X81627000Y-29177000D01*
X81627000Y-30101250D01*
X81785750Y-30260000D01*
X82200000Y-30263072D01*
X82324482Y-30250812D01*
X82444180Y-30214502D01*
X82554494Y-30155537D01*
X82651185Y-30076185D01*
X82730537Y-29979494D01*
X82789502Y-29869180D01*
X82825812Y-29749482D01*
X82838072Y-29625000D01*
X82835000Y-29335750D01*
X82676250Y-29177000D01*
X81627000Y-29177000D01*
X81373000Y-29177000D01*
X80323750Y-29177000D01*
X80165000Y-29335750D01*
X80161928Y-29625000D01*
X79998966Y-29625000D01*
X80005537Y-29616994D01*
X80064502Y-29506680D01*
X80100812Y-29386982D01*
X80113072Y-29262500D01*
X80110000Y-29010750D01*
X79951250Y-28852000D01*
X79127000Y-28852000D01*
X78873000Y-28852000D01*
X78048750Y-28852000D01*
X77890000Y-29010750D01*
X77886928Y-29262500D01*
X77113072Y-29262500D01*
X77110000Y-29010750D01*
X76951250Y-28852000D01*
X76127000Y-28852000D01*
X75873000Y-28852000D01*
X75048750Y-28852000D01*
X74890000Y-29010750D01*
X74886928Y-29262500D01*
X74761750Y-29262500D01*
X74676250Y-29177000D01*
X73627000Y-29177000D01*
X73373000Y-29177000D01*
X72323750Y-29177000D01*
X72165000Y-29335750D01*
X72161928Y-29625000D01*
X71381749Y-29625000D01*
X71394902Y-29457176D01*
X71345334Y-29039549D01*
X71215243Y-28639617D01*
X71057214Y-28343962D01*
X70741655Y-28187953D01*
X70856347Y-28073261D01*
X70795086Y-28012000D01*
X72363212Y-28012000D01*
X72348815Y-28023815D01*
X72269463Y-28120506D01*
X72210498Y-28230820D01*
X72174188Y-28350518D01*
X72161928Y-28475000D01*
X72165000Y-28764250D01*
X72323750Y-28923000D01*
X73373000Y-28923000D01*
X73373000Y-28903000D01*
X73627000Y-28903000D01*
X73627000Y-28923000D01*
X74676250Y-28923000D01*
X74835000Y-28764250D01*
X74838072Y-28475000D01*
X74825812Y-28350518D01*
X74789502Y-28230820D01*
X74730537Y-28120506D01*
X74651185Y-28023815D01*
X74636788Y-28012000D01*
X74914664Y-28012000D01*
X74899188Y-28063018D01*
X74886928Y-28187500D01*
X74890000Y-28439250D01*
X75048750Y-28598000D01*
X75873000Y-28598000D01*
X75873000Y-28578000D01*
X76127000Y-28578000D01*
X76127000Y-28598000D01*
X76951250Y-28598000D01*
X77110000Y-28439250D01*
X77110760Y-28377000D01*
X77889240Y-28377000D01*
X77890000Y-28439250D01*
X78048750Y-28598000D01*
X78873000Y-28598000D01*
X78873000Y-28578000D01*
X79127000Y-28578000D01*
X79127000Y-28598000D01*
X79951250Y-28598000D01*
X80110000Y-28439250D01*
X80113072Y-28187500D01*
X80100812Y-28063018D01*
X80085336Y-28012000D01*
X80363212Y-28012000D01*
X80348815Y-28023815D01*
X80269463Y-28120506D01*
X80210498Y-28230820D01*
X80174188Y-28350518D01*
X80161928Y-28475000D01*
X80165000Y-28764250D01*
X80323750Y-28923000D01*
X81373000Y-28923000D01*
X81373000Y-28903000D01*
X81627000Y-28903000D01*
X81627000Y-28923000D01*
X82676250Y-28923000D01*
X82835000Y-28764250D01*
X82838072Y-28475000D01*
X82825812Y-28350518D01*
X82789502Y-28230820D01*
X82730537Y-28120506D01*
X82651185Y-28023815D01*
X82636788Y-28012000D01*
X83954914Y-28012000D01*
X83893653Y-28073261D01*
X84008345Y-28187953D01*
X83692786Y-28343962D01*
X83501980Y-28718745D01*
X83387956Y-29123551D01*
X83355098Y-29542824D01*
X83404666Y-29960451D01*
X83534757Y-30360383D01*
X83692786Y-30656038D01*
X84008347Y-30812048D01*
X85320395Y-29500000D01*
X85306253Y-29485858D01*
X85485858Y-29306253D01*
X85500000Y-29320395D01*
X85514143Y-29306253D01*
X85693748Y-29485858D01*
X85679605Y-29500000D01*
X86991653Y-30812048D01*
X87307214Y-30656038D01*
X87498020Y-30281255D01*
X87612044Y-29876449D01*
X87644902Y-29457176D01*
X87595334Y-29039549D01*
X87523597Y-28819010D01*
X87815132Y-28877000D01*
X88184868Y-28877000D01*
X88473580Y-28819572D01*
X88387956Y-29123551D01*
X88355098Y-29542824D01*
X88404666Y-29960451D01*
X88534757Y-30360383D01*
X88692786Y-30656038D01*
X89008347Y-30812048D01*
X90320395Y-29500000D01*
X90306253Y-29485858D01*
X90485858Y-29306253D01*
X90500000Y-29320395D01*
X90514143Y-29306253D01*
X90693748Y-29485858D01*
X90679605Y-29500000D01*
X91991653Y-30812048D01*
X92307214Y-30656038D01*
X92498020Y-30281255D01*
X92612044Y-29876449D01*
X92644902Y-29457176D01*
X92595334Y-29039549D01*
X92465243Y-28639617D01*
X92307214Y-28343962D01*
X91991655Y-28187953D01*
X92050784Y-28128824D01*
X93925000Y-28128824D01*
X94072064Y-28114339D01*
X94213476Y-28071443D01*
X94343802Y-28001782D01*
X94458034Y-27908034D01*
X94551782Y-27793802D01*
X94573001Y-27754105D01*
X94573001Y-33573000D01*
%TA.AperFunction,Conductor*%
D14*
G36*
X94573001Y-33573000D02*
G01*
X60427000Y-33573000D01*
X60427000Y-30991653D01*
X62937952Y-30991653D01*
X63093962Y-31307214D01*
X63468745Y-31498020D01*
X63873551Y-31612044D01*
X64292824Y-31644902D01*
X64710451Y-31595334D01*
X65110383Y-31465243D01*
X65406038Y-31307214D01*
X65562048Y-30991653D01*
X67937952Y-30991653D01*
X68093962Y-31307214D01*
X68468745Y-31498020D01*
X68873551Y-31612044D01*
X69292824Y-31644902D01*
X69710451Y-31595334D01*
X70110383Y-31465243D01*
X70406038Y-31307214D01*
X70562048Y-30991653D01*
X84187952Y-30991653D01*
X84343962Y-31307214D01*
X84718745Y-31498020D01*
X85123551Y-31612044D01*
X85542824Y-31644902D01*
X85960451Y-31595334D01*
X86360383Y-31465243D01*
X86656038Y-31307214D01*
X86812048Y-30991653D01*
X89187952Y-30991653D01*
X89343962Y-31307214D01*
X89718745Y-31498020D01*
X90123551Y-31612044D01*
X90542824Y-31644902D01*
X90960451Y-31595334D01*
X91360383Y-31465243D01*
X91656038Y-31307214D01*
X91812048Y-30991653D01*
X90500000Y-29679605D01*
X89187952Y-30991653D01*
X86812048Y-30991653D01*
X85500000Y-29679605D01*
X84187952Y-30991653D01*
X70562048Y-30991653D01*
X69250000Y-29679605D01*
X67937952Y-30991653D01*
X65562048Y-30991653D01*
X64250000Y-29679605D01*
X62937952Y-30991653D01*
X60427000Y-30991653D01*
X60427000Y-28012901D01*
X60536524Y-28071443D01*
X60677936Y-28114339D01*
X60825000Y-28128824D01*
X62699216Y-28128824D01*
X62758345Y-28187953D01*
X62442786Y-28343962D01*
X62251980Y-28718745D01*
X62137956Y-29123551D01*
X62105098Y-29542824D01*
X62154666Y-29960451D01*
X62284757Y-30360383D01*
X62442786Y-30656038D01*
X62758347Y-30812048D01*
X64070395Y-29500000D01*
X64056253Y-29485858D01*
X64235858Y-29306253D01*
X64250000Y-29320395D01*
X64264143Y-29306253D01*
X64443748Y-29485858D01*
X64429605Y-29500000D01*
X65741653Y-30812048D01*
X66057214Y-30656038D01*
X66248020Y-30281255D01*
X66362044Y-29876449D01*
X66394902Y-29457176D01*
X66345334Y-29039549D01*
X66273597Y-28819010D01*
X66565132Y-28877000D01*
X66934868Y-28877000D01*
X67223580Y-28819572D01*
X67137956Y-29123551D01*
X67105098Y-29542824D01*
X67154666Y-29960451D01*
X67284757Y-30360383D01*
X67442786Y-30656038D01*
X67758347Y-30812048D01*
X69070395Y-29500000D01*
X69056253Y-29485858D01*
X69235858Y-29306253D01*
X69250000Y-29320395D01*
X69264143Y-29306253D01*
X69443748Y-29485858D01*
X69429605Y-29500000D01*
X70741653Y-30812048D01*
X71057214Y-30656038D01*
X71248020Y-30281255D01*
X71362044Y-29876449D01*
X71381749Y-29625000D01*
X72161928Y-29625000D01*
X72174188Y-29749482D01*
X72210498Y-29869180D01*
X72269463Y-29979494D01*
X72348815Y-30076185D01*
X72445506Y-30155537D01*
X72555820Y-30214502D01*
X72675518Y-30250812D01*
X72800000Y-30263072D01*
X73214250Y-30260000D01*
X73373000Y-30101250D01*
X73373000Y-29177000D01*
X73627000Y-29177000D01*
X73627000Y-30101250D01*
X73785750Y-30260000D01*
X74200000Y-30263072D01*
X74324482Y-30250812D01*
X74444180Y-30214502D01*
X74554494Y-30155537D01*
X74651185Y-30076185D01*
X74730537Y-29979494D01*
X74789502Y-29869180D01*
X74825812Y-29749482D01*
X74838072Y-29625000D01*
X74835000Y-29335750D01*
X74761750Y-29262500D01*
X74886928Y-29262500D01*
X74899188Y-29386982D01*
X74935498Y-29506680D01*
X74994463Y-29616994D01*
X75073815Y-29713685D01*
X75170506Y-29793037D01*
X75280820Y-29852002D01*
X75400518Y-29888312D01*
X75525000Y-29900572D01*
X75714250Y-29897500D01*
X75873000Y-29738750D01*
X75873000Y-28852000D01*
X76127000Y-28852000D01*
X76127000Y-29738750D01*
X76285750Y-29897500D01*
X76475000Y-29900572D01*
X76599482Y-29888312D01*
X76719180Y-29852002D01*
X76829494Y-29793037D01*
X76926185Y-29713685D01*
X77005537Y-29616994D01*
X77064502Y-29506680D01*
X77100812Y-29386982D01*
X77113072Y-29262500D01*
X77886928Y-29262500D01*
X77899188Y-29386982D01*
X77935498Y-29506680D01*
X77994463Y-29616994D01*
X78073815Y-29713685D01*
X78170506Y-29793037D01*
X78280820Y-29852002D01*
X78400518Y-29888312D01*
X78525000Y-29900572D01*
X78714250Y-29897500D01*
X78873000Y-29738750D01*
X78873000Y-28852000D01*
X79127000Y-28852000D01*
X79127000Y-29738750D01*
X79285750Y-29897500D01*
X79475000Y-29900572D01*
X79599482Y-29888312D01*
X79719180Y-29852002D01*
X79829494Y-29793037D01*
X79926185Y-29713685D01*
X79998966Y-29625000D01*
X80161928Y-29625000D01*
X80174188Y-29749482D01*
X80210498Y-29869180D01*
X80269463Y-29979494D01*
X80348815Y-30076185D01*
X80445506Y-30155537D01*
X80555820Y-30214502D01*
X80675518Y-30250812D01*
X80800000Y-30263072D01*
X81214250Y-30260000D01*
X81373000Y-30101250D01*
X81373000Y-29177000D01*
X81627000Y-29177000D01*
X81627000Y-30101250D01*
X81785750Y-30260000D01*
X82200000Y-30263072D01*
X82324482Y-30250812D01*
X82444180Y-30214502D01*
X82554494Y-30155537D01*
X82651185Y-30076185D01*
X82730537Y-29979494D01*
X82789502Y-29869180D01*
X82825812Y-29749482D01*
X82838072Y-29625000D01*
X82835000Y-29335750D01*
X82676250Y-29177000D01*
X81627000Y-29177000D01*
X81373000Y-29177000D01*
X80323750Y-29177000D01*
X80165000Y-29335750D01*
X80161928Y-29625000D01*
X79998966Y-29625000D01*
X80005537Y-29616994D01*
X80064502Y-29506680D01*
X80100812Y-29386982D01*
X80113072Y-29262500D01*
X80110000Y-29010750D01*
X79951250Y-28852000D01*
X79127000Y-28852000D01*
X78873000Y-28852000D01*
X78048750Y-28852000D01*
X77890000Y-29010750D01*
X77886928Y-29262500D01*
X77113072Y-29262500D01*
X77110000Y-29010750D01*
X76951250Y-28852000D01*
X76127000Y-28852000D01*
X75873000Y-28852000D01*
X75048750Y-28852000D01*
X74890000Y-29010750D01*
X74886928Y-29262500D01*
X74761750Y-29262500D01*
X74676250Y-29177000D01*
X73627000Y-29177000D01*
X73373000Y-29177000D01*
X72323750Y-29177000D01*
X72165000Y-29335750D01*
X72161928Y-29625000D01*
X71381749Y-29625000D01*
X71394902Y-29457176D01*
X71345334Y-29039549D01*
X71215243Y-28639617D01*
X71057214Y-28343962D01*
X70741655Y-28187953D01*
X70856347Y-28073261D01*
X70795086Y-28012000D01*
X72363212Y-28012000D01*
X72348815Y-28023815D01*
X72269463Y-28120506D01*
X72210498Y-28230820D01*
X72174188Y-28350518D01*
X72161928Y-28475000D01*
X72165000Y-28764250D01*
X72323750Y-28923000D01*
X73373000Y-28923000D01*
X73373000Y-28903000D01*
X73627000Y-28903000D01*
X73627000Y-28923000D01*
X74676250Y-28923000D01*
X74835000Y-28764250D01*
X74838072Y-28475000D01*
X74825812Y-28350518D01*
X74789502Y-28230820D01*
X74730537Y-28120506D01*
X74651185Y-28023815D01*
X74636788Y-28012000D01*
X74914664Y-28012000D01*
X74899188Y-28063018D01*
X74886928Y-28187500D01*
X74890000Y-28439250D01*
X75048750Y-28598000D01*
X75873000Y-28598000D01*
X75873000Y-28578000D01*
X76127000Y-28578000D01*
X76127000Y-28598000D01*
X76951250Y-28598000D01*
X77110000Y-28439250D01*
X77110760Y-28377000D01*
X77889240Y-28377000D01*
X77890000Y-28439250D01*
X78048750Y-28598000D01*
X78873000Y-28598000D01*
X78873000Y-28578000D01*
X79127000Y-28578000D01*
X79127000Y-28598000D01*
X79951250Y-28598000D01*
X80110000Y-28439250D01*
X80113072Y-28187500D01*
X80100812Y-28063018D01*
X80085336Y-28012000D01*
X80363212Y-28012000D01*
X80348815Y-28023815D01*
X80269463Y-28120506D01*
X80210498Y-28230820D01*
X80174188Y-28350518D01*
X80161928Y-28475000D01*
X80165000Y-28764250D01*
X80323750Y-28923000D01*
X81373000Y-28923000D01*
X81373000Y-28903000D01*
X81627000Y-28903000D01*
X81627000Y-28923000D01*
X82676250Y-28923000D01*
X82835000Y-28764250D01*
X82838072Y-28475000D01*
X82825812Y-28350518D01*
X82789502Y-28230820D01*
X82730537Y-28120506D01*
X82651185Y-28023815D01*
X82636788Y-28012000D01*
X83954914Y-28012000D01*
X83893653Y-28073261D01*
X84008345Y-28187953D01*
X83692786Y-28343962D01*
X83501980Y-28718745D01*
X83387956Y-29123551D01*
X83355098Y-29542824D01*
X83404666Y-29960451D01*
X83534757Y-30360383D01*
X83692786Y-30656038D01*
X84008347Y-30812048D01*
X85320395Y-29500000D01*
X85306253Y-29485858D01*
X85485858Y-29306253D01*
X85500000Y-29320395D01*
X85514143Y-29306253D01*
X85693748Y-29485858D01*
X85679605Y-29500000D01*
X86991653Y-30812048D01*
X87307214Y-30656038D01*
X87498020Y-30281255D01*
X87612044Y-29876449D01*
X87644902Y-29457176D01*
X87595334Y-29039549D01*
X87523597Y-28819010D01*
X87815132Y-28877000D01*
X88184868Y-28877000D01*
X88473580Y-28819572D01*
X88387956Y-29123551D01*
X88355098Y-29542824D01*
X88404666Y-29960451D01*
X88534757Y-30360383D01*
X88692786Y-30656038D01*
X89008347Y-30812048D01*
X90320395Y-29500000D01*
X90306253Y-29485858D01*
X90485858Y-29306253D01*
X90500000Y-29320395D01*
X90514143Y-29306253D01*
X90693748Y-29485858D01*
X90679605Y-29500000D01*
X91991653Y-30812048D01*
X92307214Y-30656038D01*
X92498020Y-30281255D01*
X92612044Y-29876449D01*
X92644902Y-29457176D01*
X92595334Y-29039549D01*
X92465243Y-28639617D01*
X92307214Y-28343962D01*
X91991655Y-28187953D01*
X92050784Y-28128824D01*
X93925000Y-28128824D01*
X94072064Y-28114339D01*
X94213476Y-28071443D01*
X94343802Y-28001782D01*
X94458034Y-27908034D01*
X94551782Y-27793802D01*
X94573001Y-27754105D01*
X94573001Y-33573000D01*
G37*
%TD.AperFunction*%
D13*
X94573000Y-26245895D02*
X94551782Y-26206198D01*
X94458034Y-26091966D01*
X94343802Y-25998218D01*
X94213476Y-25928557D01*
X94072064Y-25885661D01*
X93925000Y-25871176D01*
X92050784Y-25871176D01*
X91991655Y-25812047D01*
X92307214Y-25656038D01*
X92498020Y-25281255D01*
X92612044Y-24876449D01*
X92644902Y-24457176D01*
X92595334Y-24039549D01*
X92465243Y-23639617D01*
X92307214Y-23343962D01*
X91991653Y-23187952D01*
X90679605Y-24500000D01*
X90693748Y-24514143D01*
X90514143Y-24693748D01*
X90500000Y-24679605D01*
X90485858Y-24693748D01*
X90306253Y-24514143D01*
X90320395Y-24500000D01*
X89008347Y-23187952D01*
X88692786Y-23343962D01*
X88501980Y-23718745D01*
X88387956Y-24123551D01*
X88355098Y-24542824D01*
X88404666Y-24960451D01*
X88476403Y-25180990D01*
X88184868Y-25123000D01*
X87815132Y-25123000D01*
X87526420Y-25180428D01*
X87612044Y-24876449D01*
X87644902Y-24457176D01*
X87595334Y-24039549D01*
X87465243Y-23639617D01*
X87307214Y-23343962D01*
X86991653Y-23187952D01*
X85679605Y-24500000D01*
X85693748Y-24514143D01*
X85514143Y-24693748D01*
X85500000Y-24679605D01*
X85485858Y-24693748D01*
X85306253Y-24514143D01*
X85320395Y-24500000D01*
X84008347Y-23187952D01*
X83692786Y-23343962D01*
X83501980Y-23718745D01*
X83387956Y-24123551D01*
X83355098Y-24542824D01*
X83404666Y-24960451D01*
X83534757Y-25360383D01*
X83692786Y-25656038D01*
X84008345Y-25812047D01*
X83893653Y-25926739D01*
X83954914Y-25988000D01*
X82527000Y-25988000D01*
X82527000Y-23500000D01*
X82524560Y-23475224D01*
X82517333Y-23451399D01*
X82505597Y-23429443D01*
X82489803Y-23410197D01*
X82470557Y-23394403D01*
X82448601Y-23382667D01*
X82424776Y-23375440D01*
X82400000Y-23373000D01*
X72600000Y-23373000D01*
X72575224Y-23375440D01*
X72551399Y-23382667D01*
X72529443Y-23394403D01*
X72510197Y-23410197D01*
X72494403Y-23429443D01*
X72482667Y-23451399D01*
X72475440Y-23475224D01*
X72473000Y-23500000D01*
X72473000Y-25988000D01*
X70795086Y-25988000D01*
X70856347Y-25926739D01*
X70741655Y-25812047D01*
X71057214Y-25656038D01*
X71248020Y-25281255D01*
X71362044Y-24876449D01*
X71394902Y-24457176D01*
X71345334Y-24039549D01*
X71215243Y-23639617D01*
X71057214Y-23343962D01*
X70741653Y-23187952D01*
X69429605Y-24500000D01*
X69443748Y-24514143D01*
X69264143Y-24693748D01*
X69250000Y-24679605D01*
X69235858Y-24693748D01*
X69056253Y-24514143D01*
X69070395Y-24500000D01*
X67758347Y-23187952D01*
X67442786Y-23343962D01*
X67251980Y-23718745D01*
X67137956Y-24123551D01*
X67105098Y-24542824D01*
X67154666Y-24960451D01*
X67226403Y-25180990D01*
X66934868Y-25123000D01*
X66565132Y-25123000D01*
X66276420Y-25180428D01*
X66362044Y-24876449D01*
X66394902Y-24457176D01*
X66345334Y-24039549D01*
X66215243Y-23639617D01*
X66057214Y-23343962D01*
X65741653Y-23187952D01*
X64429605Y-24500000D01*
X64443748Y-24514143D01*
X64264143Y-24693748D01*
X64250000Y-24679605D01*
X64235858Y-24693748D01*
X64056253Y-24514143D01*
X64070395Y-24500000D01*
X62758347Y-23187952D01*
X62442786Y-23343962D01*
X62251980Y-23718745D01*
X62137956Y-24123551D01*
X62105098Y-24542824D01*
X62154666Y-24960451D01*
X62284757Y-25360383D01*
X62442786Y-25656038D01*
X62758345Y-25812047D01*
X62699216Y-25871176D01*
X60825000Y-25871176D01*
X60677936Y-25885661D01*
X60536524Y-25928557D01*
X60427000Y-25987099D01*
X60427000Y-23008347D01*
X62937952Y-23008347D01*
X64250000Y-24320395D01*
X65562048Y-23008347D01*
X67937952Y-23008347D01*
X69250000Y-24320395D01*
X70562048Y-23008347D01*
X84187952Y-23008347D01*
X85500000Y-24320395D01*
X86812048Y-23008347D01*
X89187952Y-23008347D01*
X90500000Y-24320395D01*
X91812048Y-23008347D01*
X91656038Y-22692786D01*
X91281255Y-22501980D01*
X90876449Y-22387956D01*
X90457176Y-22355098D01*
X90039549Y-22404666D01*
X89639617Y-22534757D01*
X89343962Y-22692786D01*
X89187952Y-23008347D01*
X86812048Y-23008347D01*
X86656038Y-22692786D01*
X86281255Y-22501980D01*
X85876449Y-22387956D01*
X85457176Y-22355098D01*
X85039549Y-22404666D01*
X84639617Y-22534757D01*
X84343962Y-22692786D01*
X84187952Y-23008347D01*
X70562048Y-23008347D01*
X70406038Y-22692786D01*
X70031255Y-22501980D01*
X69626449Y-22387956D01*
X69207176Y-22355098D01*
X68789549Y-22404666D01*
X68389617Y-22534757D01*
X68093962Y-22692786D01*
X67937952Y-23008347D01*
X65562048Y-23008347D01*
X65406038Y-22692786D01*
X65031255Y-22501980D01*
X64626449Y-22387956D01*
X64207176Y-22355098D01*
X63789549Y-22404666D01*
X63389617Y-22534757D01*
X63093962Y-22692786D01*
X62937952Y-23008347D01*
X60427000Y-23008347D01*
X60427000Y-20427000D01*
X94573000Y-20427000D01*
X94573000Y-26245895D01*
%TA.AperFunction,Conductor*%
D14*
G36*
X94573000Y-26245895D02*
G01*
X94551782Y-26206198D01*
X94458034Y-26091966D01*
X94343802Y-25998218D01*
X94213476Y-25928557D01*
X94072064Y-25885661D01*
X93925000Y-25871176D01*
X92050784Y-25871176D01*
X91991655Y-25812047D01*
X92307214Y-25656038D01*
X92498020Y-25281255D01*
X92612044Y-24876449D01*
X92644902Y-24457176D01*
X92595334Y-24039549D01*
X92465243Y-23639617D01*
X92307214Y-23343962D01*
X91991653Y-23187952D01*
X90679605Y-24500000D01*
X90693748Y-24514143D01*
X90514143Y-24693748D01*
X90500000Y-24679605D01*
X90485858Y-24693748D01*
X90306253Y-24514143D01*
X90320395Y-24500000D01*
X89008347Y-23187952D01*
X88692786Y-23343962D01*
X88501980Y-23718745D01*
X88387956Y-24123551D01*
X88355098Y-24542824D01*
X88404666Y-24960451D01*
X88476403Y-25180990D01*
X88184868Y-25123000D01*
X87815132Y-25123000D01*
X87526420Y-25180428D01*
X87612044Y-24876449D01*
X87644902Y-24457176D01*
X87595334Y-24039549D01*
X87465243Y-23639617D01*
X87307214Y-23343962D01*
X86991653Y-23187952D01*
X85679605Y-24500000D01*
X85693748Y-24514143D01*
X85514143Y-24693748D01*
X85500000Y-24679605D01*
X85485858Y-24693748D01*
X85306253Y-24514143D01*
X85320395Y-24500000D01*
X84008347Y-23187952D01*
X83692786Y-23343962D01*
X83501980Y-23718745D01*
X83387956Y-24123551D01*
X83355098Y-24542824D01*
X83404666Y-24960451D01*
X83534757Y-25360383D01*
X83692786Y-25656038D01*
X84008345Y-25812047D01*
X83893653Y-25926739D01*
X83954914Y-25988000D01*
X82527000Y-25988000D01*
X82527000Y-23500000D01*
X82524560Y-23475224D01*
X82517333Y-23451399D01*
X82505597Y-23429443D01*
X82489803Y-23410197D01*
X82470557Y-23394403D01*
X82448601Y-23382667D01*
X82424776Y-23375440D01*
X82400000Y-23373000D01*
X72600000Y-23373000D01*
X72575224Y-23375440D01*
X72551399Y-23382667D01*
X72529443Y-23394403D01*
X72510197Y-23410197D01*
X72494403Y-23429443D01*
X72482667Y-23451399D01*
X72475440Y-23475224D01*
X72473000Y-23500000D01*
X72473000Y-25988000D01*
X70795086Y-25988000D01*
X70856347Y-25926739D01*
X70741655Y-25812047D01*
X71057214Y-25656038D01*
X71248020Y-25281255D01*
X71362044Y-24876449D01*
X71394902Y-24457176D01*
X71345334Y-24039549D01*
X71215243Y-23639617D01*
X71057214Y-23343962D01*
X70741653Y-23187952D01*
X69429605Y-24500000D01*
X69443748Y-24514143D01*
X69264143Y-24693748D01*
X69250000Y-24679605D01*
X69235858Y-24693748D01*
X69056253Y-24514143D01*
X69070395Y-24500000D01*
X67758347Y-23187952D01*
X67442786Y-23343962D01*
X67251980Y-23718745D01*
X67137956Y-24123551D01*
X67105098Y-24542824D01*
X67154666Y-24960451D01*
X67226403Y-25180990D01*
X66934868Y-25123000D01*
X66565132Y-25123000D01*
X66276420Y-25180428D01*
X66362044Y-24876449D01*
X66394902Y-24457176D01*
X66345334Y-24039549D01*
X66215243Y-23639617D01*
X66057214Y-23343962D01*
X65741653Y-23187952D01*
X64429605Y-24500000D01*
X64443748Y-24514143D01*
X64264143Y-24693748D01*
X64250000Y-24679605D01*
X64235858Y-24693748D01*
X64056253Y-24514143D01*
X64070395Y-24500000D01*
X62758347Y-23187952D01*
X62442786Y-23343962D01*
X62251980Y-23718745D01*
X62137956Y-24123551D01*
X62105098Y-24542824D01*
X62154666Y-24960451D01*
X62284757Y-25360383D01*
X62442786Y-25656038D01*
X62758345Y-25812047D01*
X62699216Y-25871176D01*
X60825000Y-25871176D01*
X60677936Y-25885661D01*
X60536524Y-25928557D01*
X60427000Y-25987099D01*
X60427000Y-23008347D01*
X62937952Y-23008347D01*
X64250000Y-24320395D01*
X65562048Y-23008347D01*
X67937952Y-23008347D01*
X69250000Y-24320395D01*
X70562048Y-23008347D01*
X84187952Y-23008347D01*
X85500000Y-24320395D01*
X86812048Y-23008347D01*
X89187952Y-23008347D01*
X90500000Y-24320395D01*
X91812048Y-23008347D01*
X91656038Y-22692786D01*
X91281255Y-22501980D01*
X90876449Y-22387956D01*
X90457176Y-22355098D01*
X90039549Y-22404666D01*
X89639617Y-22534757D01*
X89343962Y-22692786D01*
X89187952Y-23008347D01*
X86812048Y-23008347D01*
X86656038Y-22692786D01*
X86281255Y-22501980D01*
X85876449Y-22387956D01*
X85457176Y-22355098D01*
X85039549Y-22404666D01*
X84639617Y-22534757D01*
X84343962Y-22692786D01*
X84187952Y-23008347D01*
X70562048Y-23008347D01*
X70406038Y-22692786D01*
X70031255Y-22501980D01*
X69626449Y-22387956D01*
X69207176Y-22355098D01*
X68789549Y-22404666D01*
X68389617Y-22534757D01*
X68093962Y-22692786D01*
X67937952Y-23008347D01*
X65562048Y-23008347D01*
X65406038Y-22692786D01*
X65031255Y-22501980D01*
X64626449Y-22387956D01*
X64207176Y-22355098D01*
X63789549Y-22404666D01*
X63389617Y-22534757D01*
X63093962Y-22692786D01*
X62937952Y-23008347D01*
X60427000Y-23008347D01*
X60427000Y-20427000D01*
X94573000Y-20427000D01*
X94573000Y-26245895D01*
G37*
%TD.AperFunction*%
%TD*%
M02*
